<?xml version="1.0" standalone="no"?><!DOCTYPE svg PUBLIC "-//W3C//DTD SVG 1.1//EN" "http://www.w3.org/Graphics/SVG/1.1/DTD/svg11.dtd"><svg t="1711267858725" class="icon" viewBox="0 0 1024 1024" version="1.1" xmlns="http://www.w3.org/2000/svg" p-id="9324" width="64" height="64" xmlns:xlink="http://www.w3.org/1999/xlink"><path d="M507.733333 221.866667c-4.266667 0-8.533333 0-12.8 4.266667-4.266667 0-8.533333 4.266667-12.8 8.533333 0 0 0 0 0 0L247.466667 469.333333c-8.533333 8.533333-12.8 17.066667-12.8 25.6 0 8.533333 4.266667 21.333333 12.8 25.6 12.8 12.8 38.4 12.8 51.2 0l174.933333-174.933333 0 418.133333c0 21.333333 17.066667 38.4 38.4 38.4 21.333333 0 38.4-17.066667 38.4-38.4L550.4 345.6l174.933333 174.933333c12.8 12.8 38.4 12.8 51.2 0 12.8-12.8 12.8-38.4 0-51.2l-238.933333-238.933333c0 0 0 0-4.266667 0-4.266667-4.266667-4.266667-4.266667-8.533333-8.533333C520.533333 221.866667 516.266667 221.866667 507.733333 221.866667 512 221.866667 512 217.6 507.733333 221.866667 512 217.6 512 221.866667 507.733333 221.866667M1024 512c0 281.6-230.4 512-512 512C230.4 1024 0 793.6 0 512 0 230.4 230.4 0 512 0 793.6 0 1024 230.4 1024 512" p-id="9325" fill="#bfbfbf"></path></svg>